Coordinates
version=1
nRows=14
nColumns=24
inDegrees=yes

Units are S.I. units (second, meters, Newtons, ...)
Angles are in degrees.

endheader
time	pelvis_tilt	pelvis_list	pelvis_rotation	pelvis_tx	pelvis_ty	pelvis_tz	hip_flexion_r	hip_adduction_r	hip_rotation_r	knee_angle_r	ankle_angle_r	subtalar_angle_r	mtp_angle_r	hip_flexion_l	hip_adduction_l	hip_rotation_l	knee_angle_l	ankle_angle_l	subtalar_angle_l	mtp_angle_l	lumbar_extension	lumbar_bending	lumbar_rotation
      3.34500000	     -9.30688061	    -10.43211879	      2.43368523	     -1.36018638	     -0.02667154	     -0.23612809	     16.85393140	     14.77890333	      2.19821009	    -20.17580963	      5.22092748	     -2.26782799	     10.06332122	     29.30309757	    -13.74490276	     -2.53868821	    -64.92211428	     -2.63882988	     14.69133638	     15.52853264	      7.77358545	      7.98872633	     -7.03971068
      3.35000000	     -9.19819852	    -10.06836681	      2.35590935	     -1.35373808	     -0.02549648	     -0.23592646	     15.89857292	     14.52539787	      2.74595312	    -19.61948469	      5.27352632	     -2.57769936	      9.57624851	     29.89285798	    -13.38067751	     -2.91591989	    -64.26233953	     -2.08782440	     14.40819635	     14.99908339	      7.65886314	      7.61287123	     -6.85056723
      3.35500000	     -9.08591869	     -9.73505049	      2.26993454	     -1.34729859	     -0.02442004	     -0.23573589	     14.94714565	     14.29112726	      3.26431619	    -19.06706382	      5.33368707	     -2.85097077	      9.08769575	     30.46086802	    -13.05509411	     -3.29959073	    -63.54522269	     -1.51255843	     14.11477645	     14.36355818	      7.54430736	      7.27551161	     -6.66842962
      3.36000000	     -9.03071384	     -9.39496432	      2.19978600	     -1.34091377	     -0.02346690	     -0.23556798	     14.10064099	     14.01746263	      3.59846691	    -18.55801200	      5.36523587	     -3.06232115	      8.75543255	     31.06967671	    -12.69296787	     -3.64622328	    -62.72950084	     -1.02068065	     13.71912127	     13.84375992	      7.49077798	      6.91671796	     -6.51192823
      3.36500000	     -8.87041982	     -9.14107714	      2.08245381	     -1.33447726	     -0.02254781	     -0.23542266	     13.08799985	     13.84909547	      4.14030004	    -17.97266368	      5.42483159	     -3.27355464	      8.29780003	     31.54793559	    -12.47012945	     -4.04303067	    -61.91043198	     -0.40669597	     13.39812915	     12.94882965	      7.32699120	      6.69049094	     -6.27304994
      3.37000000	     -8.84567381	     -8.85577907	      2.01540514	     -1.32812183	     -0.02182433	     -0.23532992	     12.30035736	     13.60140485	      4.37816929	    -17.48253067	      5.45424824	     -3.41463866	      8.05330135	     32.15556300	    -12.14645744	     -4.35181767	    -60.96268782	      0.04721145	     12.91237986	     12.37118379	      7.31374781	      6.39775431	     -6.14203535
      3.37500000	     -8.66039814	     -8.65313809	      1.88933761	     -1.32169349	     -0.02109063	     -0.23521604	     11.28257858	     13.46552424	      4.85647251	    -16.92105957	      5.50991345	     -3.58669421	      7.64591994	     32.55981839	    -11.97898150	     -4.72782910	    -60.03306133	      0.79525273	     12.66439666	     11.16081676	      7.12790374	      6.23162547	     -5.92173906
      3.38000000	     -8.58427458	     -8.44647207	      1.78311693	     -1.31534669	     -0.02052369	     -0.23519619	     10.43269368	     13.28765208	      5.14944026	    -16.41392590	      5.55492691	     -3.65664876	      7.41294414	     33.07177627	    -11.75729951	     -5.04557229	    -59.00042516	      1.32177581	     12.20357998	     10.22970281	      7.05737667	      6.05871596	     -5.71006068
      3.38500000	     -8.48867084	     -8.25605728	      1.68190827	     -1.30900356	     -0.02001924	     -0.23519781	      9.57075324	     13.11991971	      5.42145690	    -15.91514061	      5.57566963	     -3.74204457	      7.22254095	     33.53465601	    -11.55203701	     -5.34924478	    -57.89774866	      1.87280712	     11.79931902	      9.26608386	      6.96680501	      5.90443878	     -5.51643698
      3.39000000	     -8.52380697	     -8.06491851	      1.62131193	     -1.30269279	     -0.01974211	     -0.23526879	      8.88705479	     12.92656882	      5.56783843	    -15.46053186	      5.63437541	     -3.78881907	      7.14620413	     34.12789365	    -11.29482925	     -5.56585827	    -56.68581107	      2.20224892	     11.29610077	      8.79992857	      7.02692349	      5.73231256	     -5.39767513
      3.39500000	     -8.29344607	     -7.90842375	      1.47789544	     -1.29632447	     -0.01925732	     -0.23526673	      7.87200169	     12.79680904	      5.89641856	    -14.95379979	      5.61822796	     -3.89956140	      6.95274350	     34.37415560	    -11.18498755	     -5.94822040	    -55.50157852	      3.00060319	     11.15764961	      7.22936591	      6.78476246	      5.63769402	     -5.12329101
      3.40000000	     -8.24748893	     -7.75659054	      1.34999385	     -1.29007994	     -0.01904047	     -0.23536571	      7.12417872	     12.64517529	      6.10875745	    -14.54656425	      5.65182255	     -3.92208095	      6.84699522	     34.81145127	    -11.00882671	     -6.20835073	    -54.21169268	      3.58091913	     10.85363515	      6.09945590	      6.73385406	      5.54438190	     -4.88327646
      3.40500000	     -8.30576882	     -7.59108844	      1.26220263	     -1.28388385	     -0.01897175	     -0.23551480	      6.52762883	     12.46445557	      6.22394267	    -14.18989874	      5.68435054	     -3.93508409	      6.79593812	     35.33287528	    -10.78028248	     -6.39477827	    -52.78159247	      3.90474971	     10.52372804	      5.66395873	      6.79565917	      5.42065871	     -4.74755958
      3.41000000	     -8.09978000	     -7.45491449	      1.10999368	     -1.27763184	     -0.01872179	     -0.23562679	      5.59735546	     12.32873804	      6.50416770	    -13.76950408	      5.70838241	     -3.98236893	      6.69294289	     35.52096219	    -10.67468525	     -6.72344212	    -51.39246279	      4.67177385	     10.52383315	      4.19566525	      6.56025636	      5.36470083	     -4.42055420
